# Blender 4.2.2 LTS
# www.blender.org
mtllib model.mtl
o Cube
v -0.900000 -1.900000 1.000000
v -0.900000 1.900000 1.000000
v -1.000000 -2.000000 -1.000000
v -1.000000 2.000000 -1.000000
v 0.900000 -1.900000 1.000000
v 0.900000 1.900000 1.000000
v 1.000000 -2.000000 -1.000000
v 1.000000 2.000000 -1.000000
v -1.000000 -2.000000 1.000000
v -1.000000 2.000000 1.000000
v 1.000000 2.000000 1.000000
v 1.000000 -2.000000 1.000000
v -0.900000 -1.900000 -0.806764
v -0.900000 1.900000 -0.806764
v 0.900000 1.900000 -0.806764
v 0.900000 -1.900000 -0.806764
vn -1.0000 -0.0000 -0.0000
vn -0.0000 -0.0000 -1.0000
vn 1.0000 -0.0000 -0.0000
vn -0.0000 -1.0000 -0.0000
vn -0.0000 1.0000 -0.0000
vn -0.0000 -0.0000 1.0000
vt 0.375000 0.000000
vt 0.625000 0.000000
vt 0.625000 0.250000
vt 0.375000 0.250000
vt 0.625000 0.500000
vt 0.375000 0.500000
vt 0.625000 0.750000
vt 0.375000 0.750000
vt 0.381250 0.762500
vt 0.618750 0.762500
vt 0.125000 0.500000
vt 0.125000 0.750000
vt 0.875000 0.500000
vt 0.875000 0.750000
vt 0.381250 0.987500
vt 0.618750 0.987500
vt 0.625000 1.000000
vt 0.375000 1.000000
s 0
f 9/1/1 10/2/1 4/3/1 3/4/1
f 3/4/2 4/3/2 8/5/2 7/6/2
f 7/6/3 8/5/3 11/7/3 12/8/3
f 5/9/1 6/10/1 15/10/1 16/9/1
f 3/11/4 7/6/4 12/8/4 9/12/4
f 8/5/5 4/13/5 10/14/5 11/7/5
f 1/15/6 2/16/6 10/17/6 9/18/6
f 6/10/6 5/9/6 12/8/6 11/7/6
f 5/9/6 1/15/6 9/18/6 12/8/6
f 2/16/6 6/10/6 11/7/6 10/17/6
f 16/9/6 15/10/6 14/16/6 13/15/6
f 1/15/5 5/9/5 16/9/5 13/15/5
f 2/16/3 1/15/3 13/15/3 14/16/3
f 6/10/4 2/16/4 14/16/4 15/10/4
